# xmcd
#
# Track frame offsets: 
#        150
#        15636
#        29388
#        43682
#        53290
#        66348
#        78987
#        89588
#        112021
#        124479
#        136040
#        149587
#        168270
#        179753
#        202037
#
# Disc length: 2774 seconds
#
# Revision: 0
# Processed by: cddbd v1.5.1PL0 Copyright (c) Steve Scherf et al.
# Submitted via: ExactAudioCopy v0.95b2
#
DISCID=d90ad40f
DTITLE=Robbie Laws - River City Blues
DYEAR=2003
DGENRE=Blues
TTITLE0=Oreo Cookie Blues
TTITLE1=I'm Gonna' Hit That Highway
TTITLE2=River City Blues
TTITLE3=Salmon Street Rag
TTITLE4=Blue Mood
TTITLE5=Two Steps From The Blues
TTITLE6=I Got The Key To The Highway
TTITLE7=Missippi Moon
TTITLE8=It's My Life
TTITLE9=Doggon' Bad
TTITLE10=Black Cadillac
TTITLE11=I'm Gonna' Make It If I Try
TTITLE12=Loves Longing
TTITLE13=Movin' On
TTITLE14=Greensleeves
EXTD=
EXTT0=
EXTT1=
EXTT2=
EXTT3=
EXTT4=
EXTT5=
EXTT6=
EXTT7=
EXTT8=
EXTT9=
EXTT10=
EXTT11=
EXTT12=
EXTT13=
EXTT14=
PLAYORDER=
